<?xml version="1.0" encoding="UTF-8" standalone="no"?>
<!DOCTYPE svg PUBLIC "-//W3C//DTD SVG 1.1//EN"
 "http://www.w3.org/Graphics/SVG/1.1/DTD/svg11.dtd">
<!-- Generated by graphviz version 2.44.1 (20200629.0846)
 -->
<!-- Title: dependencies Pages: 1 -->
<svg width="775pt" height="355pt"
 viewBox="0.00 0.00 775.00 355.00" xmlns="http://www.w3.org/2000/svg" xmlns:xlink="http://www.w3.org/1999/xlink">
<g id="graph0" class="graph" transform="scale(1 1) rotate(0) translate(4 351)">
<title>dependencies</title>
<polygon fill="white" stroke="transparent" points="-4,4 -4,-351 771,-351 771,4 -4,4"/>
<text text-anchor="start" x="362.51" y="-42.4" font-family="sans-serif" font-weight="bold" font-size="14.00">Legend</text>
<polygon fill="#ffffb3" stroke="transparent" points="149.5,-10 149.5,-30 169.5,-30 169.5,-10 149.5,-10"/>
<text text-anchor="start" x="173.13" y="-15.4" font-family="sans-serif" font-size="14.00"> &#160;Declarations</text>
<polygon fill="#8dd3c7" stroke="transparent" points="262.5,-10 262.5,-30 282.5,-30 282.5,-10 262.5,-10"/>
<text text-anchor="start" x="286.23" y="-15.4" font-family="sans-serif" font-size="14.00"> &#160;Module</text>
<polygon fill="#80b1d3" stroke="transparent" points="348.5,-10 348.5,-30 368.5,-30 368.5,-10 348.5,-10"/>
<text text-anchor="start" x="372.28" y="-15.4" font-family="sans-serif" font-size="14.00"> &#160;Bootstrap</text>
<polygon fill="#fdb462" stroke="transparent" points="445.5,-10 445.5,-30 465.5,-30 465.5,-10 445.5,-10"/>
<text text-anchor="start" x="469.17" y="-15.4" font-family="sans-serif" font-size="14.00"> &#160;Providers</text>
<polygon fill="#fb8072" stroke="transparent" points="541.5,-10 541.5,-30 561.5,-30 561.5,-10 541.5,-10"/>
<text text-anchor="start" x="565.23" y="-15.4" font-family="sans-serif" font-size="14.00"> &#160;Exports</text>
<g id="clust1" class="cluster">
<title>cluster_AppModule</title>
<polygon fill="none" stroke="black" stroke-dasharray="1,5" points="8,-70 8,-339 447,-339 447,-70 8,-70"/>
</g>
<g id="clust2" class="cluster">
<title>cluster_AppModule_declarations</title>
<polygon fill="none" stroke="black" points="48,-143 48,-195 170,-195 170,-143 48,-143"/>
</g>
<g id="clust4" class="cluster">
<title>cluster_AppModule_imports</title>
<polygon fill="none" stroke="black" points="178,-78 178,-195 439,-195 439,-78 178,-78"/>
</g>
<g id="clust6" class="cluster">
<title>cluster_AppModule_bootstrap</title>
<polygon fill="none" stroke="black" points="31,-279 31,-331 155,-331 155,-279 31,-279"/>
</g>
<g id="clust14" class="cluster">
<title>cluster_HeaderModule</title>
<polygon fill="none" stroke="black" stroke-dasharray="1,5" points="455,-203 455,-271 759,-271 759,-203 455,-203"/>
</g>
<g id="clust15" class="cluster">
<title>cluster_HeaderModule_declarations</title>
<polygon fill="none" stroke="black" points="613,-211 613,-263 751,-263 751,-211 613,-211"/>
</g>
<g id="clust18" class="cluster">
<title>cluster_HeaderModule_exports</title>
<polygon fill="none" stroke="black" points="463,-211 463,-263 605,-263 605,-211 463,-211"/>
</g>
<!-- AppComponent -->
<g id="node1" class="node">
<title>AppComponent</title>
<polygon fill="#ffffb3" stroke="black" points="161.94,-187 56.06,-187 56.06,-151 161.94,-151 161.94,-187"/>
<text text-anchor="middle" x="109" y="-164.8" font-family="Times,serif" font-size="14.00">AppComponent</text>
</g>
<!-- AppModule -->
<g id="node2" class="node">
<title>AppModule</title>
<polygon fill="#8dd3c7" stroke="black" points="134.66,-255 131.66,-259 110.66,-259 107.66,-255 51.34,-255 51.34,-219 134.66,-219 134.66,-255"/>
<text text-anchor="middle" x="93" y="-232.8" font-family="Times,serif" font-size="14.00">AppModule</text>
</g>
<!-- AppComponent&#45;&gt;AppModule -->
<g id="edge1" class="edge">
<title>AppComponent&#45;&gt;AppModule</title>
<path fill="none" stroke="black" d="M95.55,-187.22C95.55,-187.22 95.55,-208.73 95.55,-208.73"/>
<polygon fill="black" stroke="black" points="92.05,-208.73 95.55,-218.73 99.05,-208.73 92.05,-208.73"/>
</g>
<!-- AppComponent  -->
<g id="node6" class="node">
<title>AppComponent </title>
<polygon fill="#80b1d3" stroke="black" points="147.44,-323 38.56,-323 38.56,-287 147.44,-287 147.44,-323"/>
<text text-anchor="middle" x="93" y="-300.8" font-family="Times,serif" font-size="14.00">AppComponent </text>
</g>
<!-- AppModule&#45;&gt;AppComponent  -->
<g id="edge5" class="edge">
<title>AppModule&#45;&gt;AppComponent </title>
<path fill="none" stroke="black" stroke-dasharray="1,5" d="M93,-255.22C93,-255.22 93,-276.73 93,-276.73"/>
<polygon fill="black" stroke="black" points="89.5,-276.73 93,-286.73 96.5,-276.73 89.5,-276.73"/>
</g>
<!-- AppRoutingModule -->
<g id="node3" class="node">
<title>AppRoutingModule</title>
<polygon fill="#8dd3c7" stroke="black" points="314.27,-122 311.27,-126 290.27,-126 287.27,-122 185.73,-122 185.73,-86 314.27,-86 314.27,-122"/>
<text text-anchor="middle" x="250" y="-99.8" font-family="Times,serif" font-size="14.00">AppRoutingModule</text>
</g>
<!-- AppRoutingModule&#45;&gt;AppModule -->
<g id="edge2" class="edge">
<title>AppRoutingModule&#45;&gt;AppModule</title>
<path fill="none" stroke="black" d="M250,-122.15C250,-156.36 250,-227 250,-227 250,-227 144.66,-227 144.66,-227"/>
<polygon fill="black" stroke="black" points="144.66,-223.5 134.66,-227 144.66,-230.5 144.66,-223.5"/>
</g>
<!-- HeaderModule -->
<g id="node4" class="node">
<title>HeaderModule</title>
<polygon fill="#8dd3c7" stroke="black" points="430.96,-187 427.96,-191 406.96,-191 403.96,-187 331.04,-187 331.04,-151 430.96,-151 430.96,-187"/>
<text text-anchor="middle" x="381" y="-164.8" font-family="Times,serif" font-size="14.00">HeaderModule</text>
</g>
<!-- HeaderModule&#45;&gt;AppModule -->
<g id="edge3" class="edge">
<title>HeaderModule&#45;&gt;AppModule</title>
<path fill="none" stroke="black" d="M364.34,-187.17C364.34,-208.5 364.34,-241 364.34,-241 364.34,-241 144.8,-241 144.8,-241"/>
<polygon fill="black" stroke="black" points="144.8,-237.5 134.8,-241 144.8,-244.5 144.8,-237.5"/>
</g>
<!-- HeaderComponent  -->
<g id="node8" class="node">
<title>HeaderComponent </title>
<polygon fill="#fb8072" stroke="black" points="596.74,-255 471.26,-255 471.26,-219 596.74,-219 596.74,-255"/>
<text text-anchor="middle" x="534" y="-232.8" font-family="Times,serif" font-size="14.00">HeaderComponent </text>
</g>
<!-- HeaderModule&#45;&gt;HeaderComponent  -->
<g id="edge8" class="edge">
<title>HeaderModule&#45;&gt;HeaderComponent </title>
<path fill="none" stroke="black" stroke-dasharray="5,2" d="M397.66,-187.32C397.66,-210.66 397.66,-248 397.66,-248 397.66,-248 461.02,-248 461.02,-248"/>
<polygon fill="black" stroke="black" points="461.02,-251.5 471.02,-248 461.02,-244.5 461.02,-251.5"/>
</g>
<!-- SharedModule -->
<g id="node5" class="node">
<title>SharedModule</title>
<polygon fill="#8dd3c7" stroke="black" points="431.42,-122 428.42,-126 407.42,-126 404.42,-122 332.58,-122 332.58,-86 431.42,-86 431.42,-122"/>
<text text-anchor="middle" x="382" y="-99.8" font-family="Times,serif" font-size="14.00">SharedModule</text>
</g>
<!-- SharedModule&#45;&gt;AppModule -->
<g id="edge4" class="edge">
<title>SharedModule&#45;&gt;AppModule</title>
<path fill="none" stroke="black" d="M332.76,-104C326.76,-104 322.7,-104 322.7,-104 322.7,-104 322.7,-234 322.7,-234 322.7,-234 144.86,-234 144.86,-234"/>
<polygon fill="black" stroke="black" points="144.86,-230.5 134.86,-234 144.86,-237.5 144.86,-230.5"/>
</g>
<!-- SharedModule&#45;&gt;HeaderModule -->
<g id="edge7" class="edge">
<title>SharedModule&#45;&gt;HeaderModule</title>
<path fill="none" stroke="black" d="M381.88,-122.11C381.88,-122.11 381.88,-140.99 381.88,-140.99"/>
<polygon fill="black" stroke="black" points="378.38,-140.99 381.88,-150.99 385.38,-140.99 378.38,-140.99"/>
</g>
<!-- HeaderComponent -->
<g id="node7" class="node">
<title>HeaderComponent</title>
<polygon fill="#ffffb3" stroke="black" points="742.74,-255 621.26,-255 621.26,-219 742.74,-219 742.74,-255"/>
<text text-anchor="middle" x="682" y="-232.8" font-family="Times,serif" font-size="14.00">HeaderComponent</text>
</g>
<!-- HeaderComponent&#45;&gt;HeaderModule -->
<g id="edge6" class="edge">
<title>HeaderComponent&#45;&gt;HeaderModule</title>
<path fill="none" stroke="black" d="M682,-218.78C682,-198.63 682,-169 682,-169 682,-169 441.04,-169 441.04,-169"/>
<polygon fill="black" stroke="black" points="441.04,-165.5 431.04,-169 441.04,-172.5 441.04,-165.5"/>
</g>
</g>
</svg>
