<?xml version="1.0" encoding="UTF-8" standalone="no"?>
<!DOCTYPE svg PUBLIC "-//W3C//DTD SVG 1.1//EN"
 "http://www.w3.org/Graphics/SVG/1.1/DTD/svg11.dtd">
<!-- Generated by graphviz version 2.44.1 (20200629.0846)
 -->
<!-- Title: dependencies Pages: 1 -->
<svg width="520pt" height="284pt"
 viewBox="0.00 0.00 520.00 284.00" xmlns="http://www.w3.org/2000/svg" xmlns:xlink="http://www.w3.org/1999/xlink">
<g id="graph0" class="graph" transform="scale(1 1) rotate(0) translate(4 280)">
<title>dependencies</title>
<polygon fill="white" stroke="transparent" points="-4,4 -4,-280 516,-280 516,4 -4,4"/>
<text text-anchor="start" x="235.01" y="-42.4" font-family="sans-serif" font-weight="bold" font-size="14.00">Legend</text>
<polygon fill="#ffffb3" stroke="transparent" points="22,-10 22,-30 42,-30 42,-10 22,-10"/>
<text text-anchor="start" x="45.63" y="-15.4" font-family="sans-serif" font-size="14.00"> &#160;Declarations</text>
<polygon fill="#8dd3c7" stroke="transparent" points="135,-10 135,-30 155,-30 155,-10 135,-10"/>
<text text-anchor="start" x="158.73" y="-15.4" font-family="sans-serif" font-size="14.00"> &#160;Module</text>
<polygon fill="#80b1d3" stroke="transparent" points="221,-10 221,-30 241,-30 241,-10 221,-10"/>
<text text-anchor="start" x="244.78" y="-15.4" font-family="sans-serif" font-size="14.00"> &#160;Bootstrap</text>
<polygon fill="#fdb462" stroke="transparent" points="318,-10 318,-30 338,-30 338,-10 318,-10"/>
<text text-anchor="start" x="341.67" y="-15.4" font-family="sans-serif" font-size="14.00"> &#160;Providers</text>
<polygon fill="#fb8072" stroke="transparent" points="414,-10 414,-30 434,-30 434,-10 414,-10"/>
<text text-anchor="start" x="437.73" y="-15.4" font-family="sans-serif" font-size="14.00"> &#160;Exports</text>
<g id="clust1" class="cluster">
<title>cluster_MainModule</title>
<polygon fill="none" stroke="black" stroke-dasharray="1,5" points="8,-70 8,-268 504,-268 504,-70 8,-70"/>
</g>
<g id="clust6" class="cluster">
<title>cluster_MainModule_exports</title>
<polygon fill="none" stroke="black" points="73,-208 73,-260 439,-260 439,-208 73,-208"/>
</g>
<g id="clust2" class="cluster">
<title>cluster_MainModule_declarations</title>
<polygon fill="none" stroke="black" points="138,-78 138,-130 496,-130 496,-78 138,-78"/>
</g>
<g id="clust5" class="cluster">
<title>cluster_MainModule_imports</title>
<polygon fill="none" stroke="black" points="16,-78 16,-130 130,-130 130,-78 16,-78"/>
</g>
<!-- PokemonDetailComponent -->
<g id="node1" class="node">
<title>PokemonDetailComponent</title>
<polygon fill="#ffffb3" stroke="black" points="488.43,-122 319.57,-122 319.57,-86 488.43,-86 488.43,-122"/>
<text text-anchor="middle" x="404" y="-99.8" font-family="Times,serif" font-size="14.00">PokemonDetailComponent</text>
</g>
<!-- MainModule -->
<g id="node3" class="node">
<title>MainModule</title>
<polygon fill="#8dd3c7" stroke="black" points="268.6,-187 265.6,-191 244.6,-191 241.6,-187 179.4,-187 179.4,-151 268.6,-151 268.6,-187"/>
<text text-anchor="middle" x="224" y="-164.8" font-family="Times,serif" font-size="14.00">MainModule</text>
</g>
<!-- PokemonDetailComponent&#45;&gt;MainModule -->
<g id="edge1" class="edge">
<title>PokemonDetailComponent&#45;&gt;MainModule</title>
<path fill="none" stroke="black" d="M375.38,-122.11C375.38,-141.34 375.38,-169 375.38,-169 375.38,-169 278.6,-169 278.6,-169"/>
<polygon fill="black" stroke="black" points="278.6,-165.5 268.6,-169 278.6,-172.5 278.6,-165.5"/>
</g>
<!-- PokemonListComponent -->
<g id="node2" class="node">
<title>PokemonListComponent</title>
<polygon fill="#ffffb3" stroke="black" points="302,-122 146,-122 146,-86 302,-86 302,-122"/>
<text text-anchor="middle" x="224" y="-99.8" font-family="Times,serif" font-size="14.00">PokemonListComponent</text>
</g>
<!-- PokemonListComponent&#45;&gt;MainModule -->
<g id="edge2" class="edge">
<title>PokemonListComponent&#45;&gt;MainModule</title>
<path fill="none" stroke="black" d="M224,-122.11C224,-122.11 224,-140.99 224,-140.99"/>
<polygon fill="black" stroke="black" points="220.5,-140.99 224,-150.99 227.5,-140.99 220.5,-140.99"/>
</g>
<!-- PokemonDetailComponent  -->
<g id="node5" class="node">
<title>PokemonDetailComponent </title>
<polygon fill="#fb8072" stroke="black" points="430.93,-252 259.07,-252 259.07,-216 430.93,-216 430.93,-252"/>
<text text-anchor="middle" x="345" y="-229.8" font-family="Times,serif" font-size="14.00">PokemonDetailComponent </text>
</g>
<!-- MainModule&#45;&gt;PokemonDetailComponent  -->
<g id="edge4" class="edge">
<title>MainModule&#45;&gt;PokemonDetailComponent </title>
<path fill="none" stroke="black" stroke-dasharray="5,2" d="M263.79,-187.11C263.79,-187.11 263.79,-205.99 263.79,-205.99"/>
<polygon fill="black" stroke="black" points="260.29,-205.99 263.79,-215.99 267.29,-205.99 260.29,-205.99"/>
</g>
<!-- PokemonListComponent  -->
<g id="node6" class="node">
<title>PokemonListComponent </title>
<polygon fill="#fb8072" stroke="black" points="241,-252 81,-252 81,-216 241,-216 241,-252"/>
<text text-anchor="middle" x="161" y="-229.8" font-family="Times,serif" font-size="14.00">PokemonListComponent </text>
</g>
<!-- MainModule&#45;&gt;PokemonListComponent  -->
<g id="edge5" class="edge">
<title>MainModule&#45;&gt;PokemonListComponent </title>
<path fill="none" stroke="black" stroke-dasharray="5,2" d="M210.1,-187.11C210.1,-187.11 210.1,-205.99 210.1,-205.99"/>
<polygon fill="black" stroke="black" points="206.6,-205.99 210.1,-215.99 213.6,-205.99 206.6,-205.99"/>
</g>
<!-- SharedModule -->
<g id="node4" class="node">
<title>SharedModule</title>
<polygon fill="#8dd3c7" stroke="black" points="122.42,-122 119.42,-126 98.42,-126 95.42,-122 23.58,-122 23.58,-86 122.42,-86 122.42,-122"/>
<text text-anchor="middle" x="73" y="-99.8" font-family="Times,serif" font-size="14.00">SharedModule</text>
</g>
<!-- SharedModule&#45;&gt;MainModule -->
<g id="edge3" class="edge">
<title>SharedModule&#45;&gt;MainModule</title>
<path fill="none" stroke="black" d="M101.73,-122.11C101.73,-141.34 101.73,-169 101.73,-169 101.73,-169 169.17,-169 169.17,-169"/>
<polygon fill="black" stroke="black" points="169.17,-172.5 179.17,-169 169.17,-165.5 169.17,-172.5"/>
</g>
</g>
</svg>
